<svg data-v-0dd9719b="" version="1.0" xmlns="http://www.w3.org/2000/svg" xmlns:xlink="http://www.w3.org/1999/xlink" width="100%" height="100%" viewBox="0 0 340.000000 250.000000" preserveAspectRatio="xMidYMid meet" color-interpolation-filters="sRGB" style="margin: auto;"> <rect data-v-0dd9719b="" x="0" y="0" width="100%" height="100%" fill="#fff" fill-opacity="1" class="background"></rect> <rect data-v-0dd9719b="" x="0" y="0" width="100%" height="100%" fill="url(#watermark)" fill-opacity="1" class="watermarklayer"></rect> <g data-v-0dd9719b="" fill="#333" class="icon-text-wrapper icon-svg-group iconsvg" transform="translate(49.64500427246094,96.76789283752441)"><g class="iconsvg-imagesvg" transform="translate(0,0)"><g><rect fill="#333" fill-opacity="0" stroke-width="2" x="0" y="0" width="60" height="56.464211100863906" class="image-rect"></rect> <svg x="0" y="0" width="60" height="56.464211100863906" filtersec="colorsb6815626577" class="image-svg-svg primary" style="overflow: visible;"><svg xmlns="http://www.w3.org/2000/svg" viewBox="0.28515467047691345 0.27830439805984497 105.97604370117188 99.73069763183594"><path d="M91.2 16a53.15 53.15 0 0 1-1 75.14l-4.65-4.78A46.43 46.43 0 1 0 6.68 52.57a46.06 46.06 0 0 0 13.17 33l-4.78 4.67A53.17 53.17 0 0 1 91.2 16z" fill="#2b3990"></path><path d="M25.37 24.66A39.76 39.76 0 1 1 80.89 81.6l-4.65-4.78a33.09 33.09 0 1 0-46.83-.56l-4.78 4.66a39.79 39.79 0 0 1 .74-56.26z" fill="#2b3990"></path><path d="M34.68 34.21a26.43 26.43 0 1 1 36.9 37.84l-4.66-4.78A19.74 19.74 0 1 0 39 66.94l-4.81 4.66a26.44 26.44 0 0 1 .49-37.39z" fill="#2b3990"></path><path d="M44 43.76A13.09 13.09 0 1 1 62.27 62.5l-4.66-4.77a6.42 6.42 0 1 0-9.08-.11l-4.78 4.66A13.1 13.1 0 0 1 44 43.76z" fill="#2b3990"></path><path fill="#00aeef" d="M56.678 94.65l4.868-4.748 4.741 4.862-4.868 4.747zM38.09 94.553l4.868-4.747 4.74 4.86-4.868 4.748zM57.034 76.076l4.868-4.747 4.748 4.868-4.869 4.748zM66.147 85.413l4.868-4.748 4.74 4.862-4.868 4.747zM75.613 95.14l4.868-4.747 4.748 4.868-4.868 4.748zM48.142 66.954l4.868-4.748 4.74 4.861-4.868 4.748zM38.673 76.19l4.868-4.747 4.741 4.861-4.868 4.748zM52.44 80.57v-.01l-4.88 4.75.01.01 4.74 4.87 4.88-4.75-4.75-4.87zM29.207 85.43l4.869-4.747 4.74 4.861-4.868 4.748zM19.246 95.136l4.868-4.748 4.74 4.862-4.868 4.747z"></path></svg></svg> <!----></g></g> <g transform="translate(67,0.1408557891845703)"><g data-gra="path-name" fill-rule="" class="tp-name iconsvg-namesvg" transform="translate(0,0)"><g transform="scale(1)"><g><path d="M16.35-25.27L13.05-25.27 13.05-30.23 2.99-30.23 2.99-33.35 13.05-33.35 13.05-37.62 16.35-37.62 16.35-33.35 28.61-33.35 28.61-37.62 31.95-37.62 31.95-33.35 42.14-33.35 42.14-30.23 31.95-30.23 31.95-25.27 28.61-25.27 28.61-30.23 16.35-30.23 16.35-25.27ZM9.71-14.59L9.71-14.59 12.44-13.23Q9.23-6.64 6.15-3.56L6.15-3.56 3.43-5.32Q6.9-8.48 9.71-14.59ZM22.1-21.27L22.1-21.27 34.85-21.27Q34.85-21.23 34.8-19.73L34.8-19.73Q34.19-3.65 33-0.09L33-0.09Q32.65 0.97 32.17 1.54L32.17 1.54Q31.07 2.94 28.87 3.08L28.87 3.08Q27.51 3.21 22.98 3.03L22.98 3.03Q22.9 1.41 22.02 0L22.02 0Q25.05 0.22 27.6 0.22L27.6 0.22Q28.74 0.18 29.22-0.35L29.22-0.35Q30.5-1.76 31.11-14.37L31.11-14.37Q31.2-16.13 31.29-18.15L31.29-18.15 21.75-18.15Q20.52-8.53 16.04-3.34L16.04-3.34Q12.22 1.05 5.58 3.52L5.58 3.52Q4.97 2.15 3.56 0.83L3.56 0.83Q12.88-2.37 16.22-9.71L16.22-9.71Q17.8-13.18 18.46-18.15L18.46-18.15 6.06-18.15 6.06-21.27 18.81-21.27Q18.9-22.85 19.07-25.97L19.07-25.97 22.41-25.97Q22.24-22.81 22.1-21.27ZM35.02-13.62L35.02-13.62 37.75-14.68Q41.4-8.83 42.63-4.88L42.63-4.88 39.73-3.65Q38.45-7.87 35.16-13.36L35.16-13.36Q35.07-13.54 35.02-13.62ZM55.77-22.98L55.77-36.87 59.02-36.87 59.02-22.98Q59.02-12.48 56.65-6.28L56.65-6.28Q54.49-0.66 50.19 3.38L50.19 3.38Q49.35 2.2 47.72 0.83L47.72 0.83Q54.32-5.27 55.46-16.04L55.46-16.04Q55.77-18.98 55.77-22.98L55.77-22.98ZM68.51 0.35L68.51-35.9 71.76-35.9 71.76 0.35 68.51 0.35ZM81.83 2.9L81.83-37.05 85.12-37.05 85.12 2.9 81.83 2.9ZM50.71-26.63L50.71-26.63 53.57-25.84Q51.9-17.45 49.35-13.54L49.35-13.54 46.54-14.81Q49.39-19.2 50.63-26.19L50.63-26.19Q50.67-26.41 50.71-26.63ZM60.16-24.79L60.16-24.79 62.93-25.88Q65.7-19.64 66.45-14.85L66.45-14.85Q66.45-14.81 66.45-14.77L66.45-14.77 63.54-13.49Q62.93-18.24 60.42-24.13L60.42-24.13Q60.29-24.48 60.16-24.79ZM72.82-25L72.82-25 75.37-26.28Q79.15-20.08 80.42-15.6L80.42-15.6Q80.46-15.42 80.51-15.34L80.51-15.34 77.65-13.84Q76.51-18.37 73.17-24.39L73.17-24.39Q72.99-24.7 72.82-25ZM132.71-10.9L132.71-7.95 116.02-7.95Q119.88-1.49 130.78 0.13L130.78 0.13Q132.06 0.31 133.37 0.44L133.37 0.44Q132.23 1.49 131.31 3.47L131.31 3.47Q120.19 2.07 115.22-3.74L115.22-3.74Q113.64-5.63 112.54-7.95L112.54-7.95 112.32-7.95Q110.21-2.46 104.46 0.35L104.46 0.35Q100.28 2.33 93.56 3.43L93.56 3.43Q93.08 1.89 91.93 0.57L91.93 0.57Q91.89 0.53 91.85 0.48L91.85 0.48Q102.74-1.14 106.7-5.27L106.7-5.27Q107.84-6.5 108.59-7.95L108.59-7.95 92.42-7.95 92.42-10.9 109.73-10.9Q110.17-12.7 110.43-15.03L110.43-15.03 92.72-15.03 92.72-18.11 110.74-18.11 110.74-21.84 96.77-21.84 96.77-24.74 110.74-24.74 110.74-28.39 94.53-28.39 94.53-31.42 103.62-31.42Q102.48-34.06 100.24-36.52L100.24-36.52 103.14-37.71Q105.78-35.07 106.96-32.3L106.96-32.3Q107.01-32.17 107.05-32.08L107.05-32.08 105.6-31.42 119-31.42 117.38-31.99Q119.22-34.23 121.25-37.71L121.25-37.71 124.63-36.69Q122.78-33.88 120.59-31.42L120.59-31.42 130.52-31.42 130.52-28.39 114.08-28.39 114.08-24.74 128.54-24.74 128.54-21.84 114.08-21.84 114.08-18.11 132.28-18.11 132.28-15.03 113.91-15.03Q113.73-13.18 113.2-10.9L113.2-10.9 132.71-10.9ZM151.17-9.05L151.17-13.4 142.51-13.4 142.51-9.05 151.17-9.05ZM142.51-6.33L142.51-1.54 151.17-1.54 151.17-6.33 142.51-6.33ZM139.44-16.17L154.2-16.17 154.2 1.23 142.51 1.23 142.51 3.25 139.44 3.25 139.44-16.17ZM150.21-29.75L150.21-29.75 142.78-29.75Q144.18-25.71 144.45-22.94L144.45-22.94 142.51-22.5 149.99-22.5 148.36-22.94Q149.63-26.37 150.21-29.75ZM155.65-29.75L151.04-29.75 153.33-29.22Q151.52-23.69 151.04-22.5L151.04-22.5 156.14-22.5 156.14-19.56 136.93-19.56 136.93-22.5 141.59-22.5Q141.28-25.66 140.01-29.22L140.01-29.22 142.56-29.75 137.64-29.75 137.64-32.56 144.89-32.56 144.89-37.62 148.14-37.62 148.14-32.56 155.65-32.56 155.65-29.75ZM169.58-12.35L169.58-12.35 169.98-9.4Q163.78-7.34 157.63-5.54L157.63-5.54 156.4-8.61Q161.41-9.89 169.58-12.35ZM157.72-17.49L157.72-20.57 169.32-20.57 169.32-17.49 157.72-17.49ZM162.69-30.54L176.7-30.54 176.7-28.83Q176.13-6.77 175.21-1.76L175.21-1.76Q174.73 0.57 174.02 1.49L174.02 1.49Q172.88 2.99 170.9 3.3L170.9 3.3Q170.68 3.3 170.46 3.34L170.46 3.34Q168.62 3.56 163.83 3.3L163.83 3.3Q163.65 1.41 162.82 0.09L162.82 0.09Q165.63 0.35 169.23 0.35L169.23 0.35Q170.46 0.31 171.04-0.35L171.04-0.35Q172.44-1.93 173.06-14.28L173.06-14.28Q173.32-19.38 173.54-27.47L173.54-27.47 161.41-27.47Q159.61-23.64 158.12-21.53L158.12-21.53Q156.18-23.07 155.17-23.55L155.17-23.55Q159.21-28.74 161.28-37.62L161.28-37.62 164.71-36.87Q163.87-33.62 162.69-30.54L162.69-30.54Z" transform="translate(-2.990000009536743, 37.709999084472656)"></path></g> <!----> <!----> <!----> <!----> <!----> <!----> <!----></g></g> <g data-gra="path-slogan" fill-rule="" class="tp-slogan iconsvg-slogansvg" fill="#333" transform="translate(37.46916961669922,47.22999954223633)"><!----> <!----> <g transform="scale(1, 1)"><g transform="scale(1)"><path d="M7.17-6.09L7.17-6.09L6.09-6.09Q6-7.73 3.94-7.83L3.94-7.83Q2.02-7.78 2.02-6.33L2.02-6.33Q2.02-5.39 3.05-5.25L3.05-5.25L5.48-4.69Q7.41-4.22 7.41-2.34L7.41-2.34Q7.36 0.05 4.03 0.14L4.03 0.14Q2.20 0.14 1.45-0.61L1.45-0.61Q0.52-1.31 0.56-2.77L0.56-2.77L1.69-2.77Q1.73-0.80 4.03-0.75L4.03-0.75Q6.28-0.80 6.33-2.20L6.33-2.20Q6.52-3.38 4.45-3.75L4.45-3.75L2.67-4.13Q0.84-4.64 0.84-6.19L0.84-6.19Q0.98-8.72 3.84-8.81L3.84-8.81Q7.08-8.81 7.17-6.09ZM14.53-3.19L14.53-8.58L15.70-8.58L15.70-3.05Q15.56 0.05 12.19 0.14L12.19 0.14Q9.05 0.05 8.91-2.86L8.91-2.86L8.91-8.58L10.08-8.58L10.08-3.19Q10.13-0.84 12.23-0.80L12.23-0.80Q14.53-0.84 14.53-3.19L14.53-3.19ZM18.33-1.03L23.63-1.03L23.63 0L16.88 0L16.88-0.94L22.13-7.59L17.25-7.59L17.25-8.58L23.63-8.58L23.63-7.59L18.33-1.03ZM25.92-5.06L30.42-5.06L30.42-8.58L31.59-8.58L31.59 0L30.42 0L30.42-3.98L25.92-3.98L25.92 0L24.75 0L24.75-8.58L25.92-8.58L25.92-5.06ZM40.17-4.27L40.17-4.27Q39.98-7.64 37.17-7.83L37.17-7.83Q34.31-7.69 34.17-4.27L34.17-4.27Q34.31-0.94 37.17-0.80L37.17-0.80Q39.98-0.98 40.17-4.27ZM41.34-4.27L41.34-4.27Q41.06 0 37.17 0.14L37.17 0.14Q33.23 0 32.95-4.27L32.95-4.27Q33.19-8.72 37.17-8.81L37.17-8.81Q41.06-8.67 41.34-4.27ZM48.38-3.19L48.38-8.58L49.55-8.58L49.55-3.05Q49.41 0.05 46.03 0.14L46.03 0.14Q42.89 0.05 42.75-2.86L42.75-2.86L42.75-8.58L43.92-8.58L43.92-3.19Q43.97-0.84 46.08-0.80L46.08-0.80Q48.38-0.84 48.38-3.19L48.38-3.19ZM62.91-8.58L62.91 0L61.78 0L61.78-5.06Q61.78-5.77 61.78-7.22L61.78-7.22L59.34 0L58.17 0L55.78-7.22L55.73-7.22Q55.73-6.70 55.78-5.67L55.78-5.67Q55.78-5.16 55.78-5.06L55.78-5.06L55.78 0L54.61 0L54.61-8.58L56.30-8.58L58.78-1.31L61.22-8.58L62.91-8.58ZM65.91-1.03L71.06-1.03L71.06 0L64.73 0L64.73-8.58L70.97-8.58L70.97-7.59L65.91-7.59L65.91-4.92L70.59-4.92L70.59-3.89L65.91-3.89L65.91-1.03ZM72.75-8.58L73.92-8.58L73.92 0L72.75 0L72.75-8.58ZM82.83-8.58L79.59-3.47L79.59 0L78.42 0L78.42-3.47L75.19-8.58L76.55-8.58L78.98-4.45L81.47-8.58L82.83-8.58ZM89.53-3.19L89.53-8.58L90.70-8.58L90.70-3.05Q90.56 0.05 87.19 0.14L87.19 0.14Q84.05 0.05 83.91-2.86L83.91-2.86L83.91-8.58L85.08-8.58L85.08-3.19Q85.13-0.84 87.23-0.80L87.23-0.80Q89.53-0.84 89.53-3.19L89.53-3.19ZM93.89-8.58L98.20-1.64L98.20-8.58L99.33-8.58L99.33 0L98.02 0L93.66-6.94L93.61-6.94L93.61 0L92.48 0L92.48-8.58L93.89-8.58Z" transform="translate(-0.5602678571428572, 8.8125)"></path></g></g></g></g></g><defs v-gra="od"></defs></svg>